<!--?xml version="1.0" encoding="utf-8"?-->
<!-- Svg Vector Icons : http://www.onlinewebfonts.com/icon -->

<svg version="1.1" xmlns="http://www.w3.org/2000/svg" xmlns:xlink="http://www.w3.org/1999/xlink" x="0px" y="0px" viewBox="0 0 256 256" enable-background="new 0 0 256 256" xml:space="preserve">
<metadata> Svg Vector Icons : http://www.onlinewebfonts.com/icon </metadata>
<g><g><g><path fill="#ff0270" data-title="Layer 0" xs="0" d="M128.8,15.6c-58,3-105.5,5.5-105.6,5.6c-0.1,0.1-2.7,43.9-9.7,165.3c-1.6,28.2-3.1,53.2-3.3,55.4l-0.3,4h118c64.9,0,118,0,118-0.1c0,0-1.7-53.1-3.7-117.8c-2-64.7-3.7-117.8-3.7-117.9C238.6,9.9,234,10.2,128.8,15.6z M127.6,31.3c48,1.3,87.4,2.4,87.5,2.5c0.1,0.1,1.4,13.9,2.9,30.5c1.4,16.6,5.2,58.8,8.2,93.8c3.1,34.9,5.5,63.5,5.4,63.6c-0.1,0.1-194.5,14.9-194.7,14.8c0,0-0.8-41.7-1.7-92.4c-0.9-50.8-1.8-97.5-1.9-103.8L33,28.9h3.6C38.7,28.9,79.6,30,127.6,31.3z"/><path fill="#ff0270" data-title="Layer 1" xs="1" d="M173.4,50.8c-8.6,1.6-15.4,5.8-18.3,11.4c-1.2,2.4-1.7,8.1-0.9,11.8c1.6,7.4,7.3,14.9,13.6,18.1c3,1.4,3.5,1.6,7.6,1.6c3.9,0,4.7-0.1,7.1-1.3c3.8-1.8,8.8-6.9,10.9-11.1c2.5-4.9,3.3-8.1,3.3-13.4c0-5.5-0.9-9.2-3.2-12.3C190.3,50.9,182.6,49.1,173.4,50.8z M178.3,63.5c2.9,1.8,4.6,4.9,4.6,8.5c0,4.1-2.6,6.2-7.6,6.2c-3.2,0-6-1.1-7.2-2.9c-0.8-1.1-1-1.8-0.8-4.1c0.2-3.3,1.9-5.9,4.7-7.6C174.3,62.3,176.1,62.3,178.3,63.5z"/><path fill="#ff0270" data-title="Layer 2" xs="2" d="M71.6,51.7c-7,2.3-12.8,7-15.7,13.1c-1.6,3.2-1.8,3.8-1.8,7.4c0,3.5,0.2,4.3,1.5,7.1c3.2,6.8,10.9,12.3,19.6,13.9c3.5,0.7,4.7,0.7,8.2,0.3c7-0.9,11.2-3.8,13.1-9c1.2-3.2,1.2-12.6,0-16.9c-2-7.5-6.2-13.4-11.1-15.7C81.8,50.2,76.5,50.1,71.6,51.7z M81.1,65.6c5.6,3.9,5.4,9.6-0.3,12.7c-2.8,1.5-6.7,1.8-8.5,0.6c-3.6-2.5-3.7-10.5-0.1-13.6c1.5-1.3,1.8-1.4,4.3-1.2C78.6,64.2,79.7,64.5,81.1,65.6z"/><path fill="#ff0270" data-title="Layer 3" xs="3" d="M170.9,109.5c-7.1,2.4-12.5,10.1-13.9,19.7c-1.2,9.1,2.7,17.4,9.9,20.7c9.1,4.1,22.4,0.7,30-7.8c3.8-4.3,5.1-7.2,5.1-11.4c0-2.9-0.2-3.9-1.3-5.9c-2.8-5.4-10-11.4-16.9-14.1c-2.8-1.1-4.4-1.4-7.6-1.5C173.9,109.2,171.5,109.3,170.9,109.5z M182.1,123.1c3.1,1.3,4.3,4.2,3.5,8.2c-1,4.7-4.8,7.7-8.5,6.7c-3.5-1-7.1-5.6-7.1-9.2C170,124.4,177.1,120.9,182.1,123.1z"/><path fill="#ff0270" data-title="Layer 4" xs="4" d="M73,111.2c-5.3,1.3-9.4,3.7-13.5,7.8c-4.7,4.7-6.3,7.9-6.4,12.3c0,3.8,1.5,7.2,5.2,11.1c8.7,9.4,21.2,13.2,29.2,8.9c5.8-3.2,10.2-11.3,10.9-19.8c0.6-9.1-3.6-16.8-10.8-19.6C84.2,110.5,77,110.2,73,111.2z M80.8,125.4c5.4,4.1,6.1,9.5,1.6,12.5c-2.4,1.6-7.3,2.1-9.6,0.9c-4.5-2.4-4.4-9.6,0.2-13.6c1.6-1.4,2-1.5,4-1.3C78.4,124.1,79.7,124.6,80.8,125.4z"/><path fill="#ff0270" data-title="Layer 5" xs="5" d="M70.7,169c-5.4,1.8-10.3,6.2-13.4,12.4c-2.4,4.9-3.1,8.2-2.9,14.3c0.2,4.9,0.3,5.6,1.7,8.4c1.6,3.3,3.1,4.7,6.8,6.4c2,1,3,1.1,8.7,1.1c6,0,6.7-0.1,10.7-1.5c14.5-5,18.7-15,12-28.6c-3.1-6.4-8.6-11.2-14.5-12.8C76.4,167.9,74.1,167.9,70.7,169z M81.1,185c3.1,1.8,3.8,5.3,1.8,9.3c-1,2.1-3.7,4.5-5.3,4.9c-4.6,1.2-9.4-3.6-9.4-9.4c0-4.1,3.1-6.2,8.6-5.9C78.5,184,80.2,184.4,81.1,185z"/><path fill="#ff0270" data-title="Layer 6" xs="6" d="M166.5,169.4c-3.6,1.2-6.3,3.5-7.9,6.8c-1.2,2.4-1.3,3.2-1.5,8c-0.2,6.6,0.7,11,3.2,16.3c2.3,4.7,5.3,8,9,9.7c9.1,4.2,24.2-2.3,29.4-12.7c1.4-2.9,1.5-3.4,1.5-7.7s-0.1-4.8-1.5-7.6c-2.8-5.6-8.9-10.5-15.9-12.7C178.1,168.2,170.8,168.1,166.5,169.4z M182.5,183.5c1.8,1.6,2.4,3.5,2.4,6.6c0,3.3-0.7,5.1-2.7,6.9c-1,0.9-1.7,1.2-3.6,1.1c-5.8,0-10.7-5.7-8.8-10.2c1-2.4,1.9-3.3,4.6-4.6C177.2,182.1,180.9,182.1,182.5,183.5z"/></g></g></g>
</svg>