<?xml version="1.0" encoding="utf-8"?>
<!-- Svg Vector Icons : http://www.onlinewebfonts.com/icon -->
<!DOCTYPE svg PUBLIC "-//W3C//DTD SVG 1.1//EN" "http://www.w3.org/Graphics/SVG/1.1/DTD/svg11.dtd">
<svg version="1.1" xmlns="http://www.w3.org/2000/svg" xmlns:xlink="http://www.w3.org/1999/xlink" x="0px" y="0px" viewBox="0 0 256 256" enable-background="new 0 0 256 256" xml:space="preserve">
<metadata> Svg Vector Icons : http://www.onlinewebfonts.com/icon </metadata>
<g><g><g><path fill="#000000" d="M124.5,12.4C121.8,15.2,68.8,75,67.3,77c-2.1,2.7-5.6,2.6,60.7,2.6c66.3,0,62.9,0.1,60.7-2.6c-1.2-1.6-49.8-56.4-55.6-62.8C128.4,9,127.9,8.9,124.5,12.4z"/><path fill="#000000" d="M70.8,40.1c-22.7,13-41.4,24-41.7,24.4c-0.3,0.5-0.3,1,0,1.4c0.3,0.4,6.1,3.2,12.9,6.3c12.5,5.6,14.6,6.2,16.7,5.1c0.9-0.5,53.7-59.6,54-60.5c0.1-0.2,0-0.4-0.2-0.4C112.3,16.4,93.5,27.1,70.8,40.1z"/><path fill="#000000" d="M143.3,16.9c0.3,0.9,53,60,53.9,60.5c0.5,0.3,1.6,0.5,2.4,0.6c1.7,0,26.6-10.8,27.2-11.8c0.3-0.5,0.3-1,0-1.5c-0.5-0.7-82.5-48.1-83.3-48.1C143.3,16.4,143.2,16.6,143.3,16.9z"/><path fill="#000000" d="M24.1,72c-0.6,0.6-0.7,5.8-0.7,50c0,32.5,0.1,49.3,0.5,49.3c0.3,0,0.5-0.1,0.5-0.1c0-0.1,6.6-19,14.8-42.1c8.1-23,14.8-42.5,14.8-43.1c0-0.7-0.4-1.7-0.8-2.2c-0.8-0.9-26.4-12.5-27.6-12.5C25.1,71.3,24.5,71.6,24.1,72z"/><path fill="#000000" d="M216.7,77.1c-7.1,3.1-13.3,6.2-13.7,6.7c-0.5,0.6-0.8,1.5-0.8,2.2c0,0.7,6.6,20.1,14.8,43.1c8.1,23,14.8,41.9,14.8,42c0,0,0.2,0.1,0.5,0.1c0.3,0,0.5-16.7,0.5-49.3c0-44.2-0.1-49.4-0.7-50c-0.4-0.4-1.1-0.7-1.5-0.7C230,71.3,223.8,74,216.7,77.1z"/><path fill="#000000" d="M65,86.3c-0.1,0.5-0.1,1.3,0.2,2c0.4,1.2,58.5,103.9,60.8,107.6c1.8,2.9,2.6,2.4,6.2-3.8c32-56,58.7-103.7,58.7-104.9v-1.4l-62.8-0.1C70.1,85.6,65.3,85.6,65,86.3z"/><path fill="#000000" d="M58.2,91.9c-0.1,0.3-7.7,21.4-16.6,46.9c-11.2,31.9-16.3,46.8-16.1,47.5c0.2,0.6,0.7,1.3,1.2,1.5c1.1,0.6,93,13.4,93.8,13c0.5-0.2,0.6-0.7,0.5-1.5c-0.1-1.1-12.2-22.5-54.3-96.6c-4.7-8.4-6.5-11.1-7.2-11.2C58.9,91.6,58.4,91.7,58.2,91.9z"/><path fill="#000000" d="M195.4,92.1c-1.5,2-60.3,106.3-60.4,107.3c-0.1,0.8,0,1.3,0.5,1.5c0.9,0.3,92.7-12.4,93.8-13c0.5-0.2,1-0.9,1.2-1.5c0.2-0.7-4.9-15.8-16.2-47.8c-14.3-40.7-16.6-46.7-17.4-46.9C196.4,91.6,195.7,91.8,195.4,92.1z"/><path fill="#000000" d="M36.7,195.9c0,0.6,84.5,49.5,86.3,50c2.1,0.6,2.2-0.3,2.2-18.2c0-9.5-0.2-17.2-0.5-17.9c-0.2-0.6-0.9-1.5-1.5-1.9c-0.8-0.5-13.3-2.4-42.3-6.5c-22.7-3.1-41.9-5.8-42.7-5.9C37.2,195.4,36.7,195.5,36.7,195.9z"/><path fill="#000000" d="M176.6,201.2c-23,3.2-42.4,6-43,6.2s-1.5,0.9-2,1.5c-0.9,1.2-0.9,1.8-0.9,18.3c0,19,0,19.4,2.6,18.4c1.3-0.5,84.3-48.3,85.3-49.1c0.6-0.5,0.7-1.3,0.2-1.2C218.7,195.3,199.7,198,176.6,201.2z"/></g></g></g>
</svg>