<svg class="svg-icon" style="width: 10px; height: 1em;vertical-align: middle;fill: currentColor;overflow: hidden;" viewBox="0 0 1316 1024" version="1.1" xmlns="http://www.w3.org/2000/svg"><path d="M604.327886 184.160687q-69.127765-45.905157-151.757047-45.905156-55.626249 0-106.661982 21.872457T258.148999 218.72457 199.552416 306.214398 177.679959 412.606349q0 56.166309 21.872457 106.932012T258.148999 607.028189t87.489828 58.596583 106.932012 21.872456q82.629282 0 151.757047-45.905156-70.747947-57.786491-96.130799-143.386107t0.270031-170.929201T604.327886 184.160687z m17.822002 12.961456q-68.047644 53.466006-92.890435 134.745137t-0.27003 162.28823 93.160465 134.475106q68.587705-53.466006 93.160465-134.475106t-0.270031-162.28823T622.149888 197.122143z m17.822002-12.961456q70.207887 57.786491 95.860768 143.386107t0.27003 171.199232-96.130798 142.846046q69.127765 45.905157 151.757047 45.905156 56.166309 0 106.932012-21.872456t87.489828-58.596583 58.596582-87.489828 21.872457-106.932012q0-55.626249-21.872457-106.391951T986.150777 218.72457t-87.759858-58.596582T791.728937 138.255531q-82.629282 0-151.757047 45.905156z m400.184954 389.923802h3.780424v-1.620182h-9.181031v1.620182h3.780425v9.181031h1.620182v-9.181031z m15.661759 9.181031h2.160243v-10.801213h-2.700304l-3.240364 7.020788-3.240364-7.020788h-2.700303v10.801213h1.620182v-8.10091l3.240364 7.020789h2.160243l2.700303-7.020789v8.10091z m-4.320485 237.626693v1.080121h-2.700304v-1.620182h2.700304v0.540061z m0 4.860546h1.620182l-2.160243-2.700303h1.080121l0.540061-0.540061q0.540061-0.540061 0.540061-1.620182t-0.540061-1.620182l-0.540061-0.540061h-4.860546v7.020789h1.620182v-2.700303h0.540061z m-681.556561-36.724125q0-10.261153 5.940667-16.741881t16.20182-6.480728q9.721092 0 15.661759 6.750758t5.940668 16.471851q0 10.261153-5.940668 16.74188t-15.661759 6.480728q-10.261153 0-16.20182-6.480728t-5.940667-16.74188z m255.448695-23.76267q16.20182 0 18.902123 17.281942h-37.804246q2.700303-17.281941 18.902123-17.281942z m192.261597 23.76267q0-10.261153 5.940667-16.741881t15.66176-6.480728 15.931789 6.750758 6.210698 16.471851q0 10.261153-5.940667 16.74188t-16.20182 6.480728q-9.721092 0-15.66176-6.480728t-5.940667-16.74188z m146.896501 0q0-9.721092 6.210698-16.471851t15.93179-6.750758 15.931789 6.750758 6.210698 16.471851q0 10.261153-6.210698 16.74188t-15.931789 6.480728-15.93179-6.750758-6.210698-16.47185z m85.329586 38.884368q-1.080121 0-2.160243-0.540061-0.540061 0-1.620182-1.080121t-1.080121-1.620182q-0.540061-1.080121-0.540061-2.160243 0-1.620182 0.540061-2.160243 0-1.080121 1.080121-2.160242l0.540061-0.540061q1.080121 0 1.080121-0.540061 1.080121-0.540061 2.160243-0.54006 1.620182 0 2.160242 0.54006l2.160243 1.080122 1.080121 2.160242v0.540061q0.540061 1.080121 0.540061 1.620182l-0.540061 0.540061v1.620182l-0.54006 0.54006-0.540061 1.080122q-1.080121 1.080121-2.160243 1.080121-0.540061 0.540061-2.160242 0.540061z m-726.381597-2.160243h16.20182v-45.905157q0-12.961456-7.830879-20.792335T310.534883 750.684326q-17.281941 0-25.382851 12.961456-7.560849-12.961456-24.30273-12.961456-12.961456 0-21.062366 10.801214v-8.640971h-16.20182v72.90819h16.20182v-40.50455q0-19.442184 17.822002-19.442184 16.20182 0 16.20182 19.442184v40.50455h15.661759v-40.50455q0-19.442184 17.822002-19.442184 16.20182 0 16.20182 19.442184v40.50455z m89.650071 0h15.661759v-72.90819h-15.661759v8.640971q-9.181031-10.801213-23.222609-10.801214-15.661759 0-25.922912 10.801214t-10.261152 27.543094 10.261152 27.543094 25.922912 10.801213q15.121699 0 23.222609-10.801213v9.181031z m96.130799-22.142487q0-18.362063-25.382852-21.602427l-7.560849-1.080121q-12.421395-2.160243-12.421395-7.56085 0-8.10091 13.501516-8.10091 12.421395 0 23.222609 5.940668l6.480728-12.961456q-11.881335-7.560849-29.703337-7.56085-14.041577 0-22.142487 6.480728t-8.10091 17.281942q0 17.822002 25.382851 21.062366l7.020789 1.080121q12.961456 2.160243 12.961456 7.560849 0 9.181031-16.741881 9.181032-13.501517 0-24.30273-7.56085l-7.020788 12.421396q13.501517 9.181031 31.323518 9.181031 15.661759 0 24.572761-6.480728t8.911001-17.281941z m70.207886 18.362062l-4.320485-13.501516q-7.020789 3.780425-14.041577 3.780424-10.261153 0-10.261153-11.881334v-32.943701h25.922912v-14.581638h-25.922912v-22.142487h-16.20182v22.142487h-15.121699v14.581638h15.121699v32.943701q0 27.003033 25.382851 27.003033 11.341274 0 19.442184-5.400607z m46.445218-71.288008q-15.661759 0-25.922912 10.801214t-10.261153 27.543094q0 17.281941 10.531183 27.813124t26.733003 10.531183q17.822002 0 29.703337-10.261153l-7.56085-11.881334q-9.721092 8.10091-21.062366 8.10091-18.362063 0-22.142487-17.822002h54.546127v-6.480728q0-17.281941-9.721092-27.813125t-24.84279-10.531183z m85.869645 0q-12.421395 0-18.902123 10.801214v-8.640971h-16.20182v72.90819h16.20182v-41.044611q0-18.902123 15.661759-18.902123 5.400607 0 9.721092 2.160243l4.860546-15.121699q-4.860546-2.160243-11.341274-2.160243z m16.20182 38.344308q0 16.741881 10.531183 27.543094t28.353185 10.801213q15.661759 0 25.922912-8.640971l-7.560849-12.961456q-9.721092 7.020789-18.902123 6.480728-9.721092 0-15.93179-6.480728t-6.210698-16.74188 6.210698-16.741881 15.93179-6.480728q10.261153 0 18.902123 6.480728l7.560849-12.961456q-10.801213-8.640971-25.922912-8.640971-17.822002 0-28.353185 10.801214t-10.531183 27.543094z m132.314864 36.724125h16.20182v-72.90819h-16.20182v8.640971q-8.10091-10.801213-22.682548-10.801214-15.661759 0-26.192943 10.801214t-10.531183 27.543094 10.531183 27.543094 26.192943 10.801213q15.121699 0 22.682548-10.801213v9.181031z m71.828068-75.068433q-12.421395 0-18.902123 10.801214v-8.640971h-15.661759v72.90819h15.661759v-41.044611q0-18.902123 15.661759-18.902123 5.400607 0 9.721092 2.160243l4.860546-15.121699q-4.320485-2.160243-11.341274-2.160243z m75.608494 75.068433h15.661759v-102.611527h-15.661759v38.344308q-8.10091-10.801213-23.222609-10.801214t-25.652882 11.071244-10.531183 27.273064 10.531183 27.273063 25.652882 11.071244q15.661759 0 23.222609-10.801213v9.181031z m42.124732-10.801213l-1.080122 0.54006h-1.620182q-1.080121 0.540061-2.160242 1.620182-1.620182 0.540061-1.620182 2.160243-0.540061 1.080121-0.540061 3.240364 0 1.620182 0.540061 2.700303 0 1.080121 1.620182 2.160243 1.080121 1.080121 2.160242 1.620182t2.700304 0.540061q2.160243 0 3.240364-0.540061 0-0.540061 1.080121-1.080121l1.080121-0.540061q0.540061-0.540061 1.620182-2.160243 0.540061-1.080121 0.540061-2.700303 0-2.160243-0.540061-3.240364-0.540061-0.540061-1.620182-2.160243 0-0.540061-1.080121-1.080121l-1.080121-0.540061q-0.540061 0-1.620182-0.27003t-1.620182-0.27003z m194.42184-676.696015v691.277653q0 28.083155-20.522306 48.60546t-48.60546 20.522305H69.127765q-28.083155 0-48.60546-20.522305t-20.522305-48.60546V138.255531q0-28.083155 20.522305-48.60546t48.60546-20.522306h1106.044245q28.083155 0 48.60546 20.522306t20.522306 48.60546z"  /></svg>