<svg class="svg-icon" style="width: 1em; height: 1em;vertical-align: middle;fill: currentColor;overflow: hidden;" viewBox="0 0 1024 1024" version="1.1" xmlns="http://www.w3.org/2000/svg"><path d="M868.957 192.158H155.043c-49.958 0-90.604 40.645-90.604 90.604v458.477c0 49.958 40.645 90.604 90.604 90.604h713.914c49.958 0 90.604-40.646 90.604-90.604V282.762c0-49.959-40.646-90.604-90.604-90.604z m27.29 549.08c0 15.048-12.242 27.29-27.29 27.29H155.043c-15.048 0-27.29-12.242-27.29-27.29V282.762c0-15.048 12.242-27.29 27.29-27.29h713.914c15.048 0 27.29 12.242 27.29 27.29v458.476z"  /><path d="M298.044 519.641l-24.015-120.077H153.952s96.061 24.015 144.092 120.077z"  /><path d="M359.174 399.564l-54.581 157.192-4.366-21.832s-21.832-58.947-78.596-93.879l45.848 181.207h63.313l89.512-222.689c0.001 0.001-60.038 0.001-61.13 0.001zM409.389 620.069h58.947l34.931-220.505H444.32zM595.024 477.766c-4.384-2.305-10.743-5.113-11.867-6.985-0.14-0.233-0.236-0.859-0.356-1.942-1.425-12.88 2.373-16.016 3.625-17.046 12.566-10.355 53.048-5.324 77.43 2.292l15.071-47.901c-14.01-4.418-85.854-24.855-124.373 6.806-11.905 9.786-25.327 28.38-21.66 61.392 3.239 29.149 22.935 39.507 38.759 47.828 11.948 6.281 25.476 13.396 42.183 29.981 1.588 2.512 4.622 11.552 1.087 16.922-5.238 7.963-32.126 17.442-99.659 2.431l-10.895 49.02c27.363 6.078 51.38 9.115 72.002 9.115 41.616 0 69.405-12.362 82.933-37.004 15.27-27.815 4.309-61.723-9.473-75.505-22.323-22.322-41.872-32.603-54.807-39.404zM763.071 399.564L668.1 621.161h56.764l12.008-31.657h74.23l6.55 30.565h52.397l-43.664-220.505h-63.314z m-9.825 147.368l32.748-85.146c0.819-0.819 17.466 85.146 17.466 85.146h-50.214z"  /></svg>